name Walk4.mot
datacolumns 19
datarows 10
range 2.00300000 2.01200000
endheader

                time	   L_ground_force_vx	   L_ground_force_vy	   L_ground_force_vz	   L_ground_force_px	   L_ground_force_py	   L_ground_force_pz	   R_ground_force_vx	   R_ground_force_vy	   R_ground_force_vz	   R_ground_force_px	   R_ground_force_py	   R_ground_force_pz	   L_ground_torque_x	   L_ground_torque_y	   L_ground_torque_z	   R_ground_torque_x	   R_ground_torque_y	   R_ground_torque_z	
          2.00300000	        -23.87065734	        531.54424235	        -36.16128500	          0.24340727	          0.00000000	          0.08241793	          0.00000000	          0.00000000	          0.00000000	          0.00000000	          0.00000000	          0.00000000	          0.00000000	          1.61161954	          0.00000000	          0.00000000	          0.00000000	          0.00000000	
          2.00400000	        -23.35160817	        529.43834059	        -36.07062763	          0.24380086	          0.00000000	          0.08260277	          0.00000000	          0.00000000	          0.00000000	          0.00000000	          0.00000000	          0.00000000	          0.00000000	          1.61795634	          0.00000000	          0.00000000	          0.00000000	          0.00000000	
          2.00500000	        -22.83116064	        527.31586867	        -36.00449990	          0.24423035	          0.00000000	          0.08278595	          0.00000000	          0.00000000	          0.00000000	          0.00000000	          0.00000000	          0.00000000	          0.00000000	          1.62718299	          0.00000000	          0.00000000	          0.00000000	          0.00000000	
          2.00600000	        -22.30269984	        525.13823978	        -35.96390827	          0.24465623	          0.00000000	          0.08294547	          0.00000000	          0.00000000	          0.00000000	          0.00000000	          0.00000000	          0.00000000	          0.00000000	          1.63664479	          0.00000000	          0.00000000	          0.00000000	          0.00000000	
          2.00700000	        -21.76739439	        522.94021755	        -35.94119835	          0.24505252	          0.00000000	          0.08307891	          0.00000000	          0.00000000	          0.00000000	          0.00000000	          0.00000000	          0.00000000	          0.00000000	          1.64305906	          0.00000000	          0.00000000	          0.00000000	          0.00000000	
          2.00800000	        -21.23634233	        520.79259895	        -35.92788873	          0.24542784	          0.00000000	          0.08318591	          0.00000000	          0.00000000	          0.00000000	          0.00000000	          0.00000000	          0.00000000	          0.00000000	          1.64484657	          0.00000000	          0.00000000	          0.00000000	          0.00000000	
          2.00900000	        -20.72573571	        518.73742996	        -35.92033822	          0.24578903	          0.00000000	          0.08326667	          0.00000000	          0.00000000	          0.00000000	          0.00000000	          0.00000000	          0.00000000	          0.00000000	          1.64286150	          0.00000000	          0.00000000	          0.00000000	          0.00000000	
          2.01000000	        -20.24625531	        516.76915525	        -35.92058603	          0.24611911	          0.00000000	          0.08333391	          0.00000000	          0.00000000	          0.00000000	          0.00000000	          0.00000000	          0.00000000	          0.00000000	          1.63801841	          0.00000000	          0.00000000	          0.00000000	          0.00000000	
          2.01100000	        -19.79711532	        514.84549109	        -35.93201893	          0.24640185	          0.00000000	          0.08340199	          0.00000000	          0.00000000	          0.00000000	          0.00000000	          0.00000000	          0.00000000	          0.00000000	          1.62893204	          0.00000000	          0.00000000	          0.00000000	          0.00000000	
          2.01200000	        -19.37116929	        512.92542893	        -35.95445831	          0.24665926	          0.00000000	          0.08347853	          0.00000000	          0.00000000	          0.00000000	          0.00000000	          0.00000000	          0.00000000	          0.00000000	          1.61337300	          0.00000000	          0.00000000	          0.00000000	          0.00000000	
